<?xml version="1.0" encoding="utf-8"?>
<!-- Svg Vector Icons : http://www.onlinewebfonts.com/icon -->
<!DOCTYPE svg PUBLIC "-//W3C//DTD SVG 1.1//EN" "http://www.w3.org/Graphics/SVG/1.1/DTD/svg11.dtd">
<svg version="1.1" xmlns="http://www.w3.org/2000/svg" xmlns:xlink="http://www.w3.org/1999/xlink" x="0px" y="0px" viewBox="0 0 1000 1000" enable-background="new 0 0 1000 1000" xml:space="preserve">
<metadata> Svg Vector Icons : http://www.onlinewebfonts.com/icon </metadata>
<g><path d="M500,990C229.4,990,10,770.6,10,500C10,229.4,229.4,10,500,10c270.6,0,490,219.4,490,490C990,770.6,770.6,990,500,990z M809.1,599l-29.9-108.9c8.3-17.3,13.1-36.5,13.1-56.9c0-73.8-61.1-133.6-136.4-133.6c-37.2,0-70.8,14.6-95.4,38.2H439.5c-24.6-23.6-58.2-38.2-95.4-38.2c-75.3,0-136.4,59.8-136.4,133.6c0,20.4,4.8,39.6,13.1,56.9L190.9,599c-11.8,43.1,14.1,87.4,57.9,98.8c43.8,11.4,88.9-14.3,100.8-57.4l19.7-71.9c16.5,4.7,67.4,17.4,130.7,17.4c63.9,0,114.3-12.7,130.7-17.4l19.7,71.9c11.8,43.1,56.9,68.8,100.8,57.4C795,686.4,820.9,642.2,809.1,599z M655.9,490.6c-32.3,0-58.5-25.6-58.5-57.3s26.2-57.3,58.5-57.3c32.3,0,58.5,25.6,58.5,57.3C714.4,464.9,688.2,490.6,655.9,490.6z M363.6,509.6h-39v-57.3h-58.5v-38.2h58.5v-57.3h39v57.3H422v38.2h-58.5V509.6z"/></g>
</svg>